<svg height="512pt" viewBox="-114 0 512 512.00175" width="512pt" xmlns="http://www.w3.org/2000/svg"><path d="m194.003906 248.644531v-50.640625h-104.003906v50.640625c-47.042969 20.183594-80 66.917969-80 121.355469 0 72.902344 59.101562 132.003906 132.003906 132.003906s132-59.101562 132-132.003906c0-54.4375-32.957031-101.171875-80-121.355469zm0 0" fill="#eff3f3"/><path d="m266.808594 326.9375-1.054688 1.558594c-34.171875 34.171875-89.578125 34.171875-123.75 0-34.175781-34.175782-89.582031-34.175782-123.753906 0 0 0-.703125.429687-1.972656 1.222656-4.066406 12.699219-6.277344 26.230469-6.277344 40.28125 0 72.902344 59.101562 132 132.003906 132s132-59.097656 132-132c0-15.078125-2.539062-29.5625-7.195312-43.0625zm0 0" fill="#cbe558"/><path d="m202.003906 198.003906h-120.003906c-11.042969 0-20-8.953125-20-20s8.957031-20 20-20h120.003906c11.046875 0 20 8.953125 20 20s-8.953125 20-20 20zm0 0" fill="#eff3f3"/><path d="m114.109375 65.792969c0 22.8125 10.957031 43.066406 27.894531 55.789062 16.9375-12.722656 27.894532-32.976562 27.894532-55.789062 0-22.816407-10.957032-43.066407-27.894532-55.792969-16.9375 12.726562-27.894531 32.976562-27.894531 55.792969zm0 0" fill="#d8ec84"/><path d="m161.125 101.9375c-15.105469 15.105469-21.261719 35.773438-18.46875 55.414062 19.640625 2.789063 40.304688-3.367187 55.414062-18.472656 15.105469-15.109375 21.261719-35.773437 18.472657-55.414062-19.640625-2.789063-40.308594 3.363281-55.417969 18.472656zm0 0" fill="#cbe558"/><path d="m122.878906 101.9375c15.105469 15.105469 21.261719 35.773438 18.472656 55.414062-19.640624 2.789063-40.308593-3.367187-55.414062-18.472656-15.109375-15.109375-21.261719-35.773437-18.472656-55.414062 19.640625-2.789063 40.304687 3.363281 55.414062 18.472656zm0 0" fill="#cbe558"/><path d="m204.003906 242.21875v-34.289062c15.613282-1.035157 28-14.058594 28-29.925782 0-16.222656-12.945312-29.46875-29.042968-29.976562.734374-.679688 1.46875-1.363282 2.179687-2.078125 16.902344-16.902344 24.667969-40.191407 21.300781-63.890625-.625-4.40625-4.085937-7.867188-8.492187-8.496094-13.511719-1.917969-26.886719-.214844-39.023438 4.730469.636719-4.089844.972657-8.265625.972657-12.503907 0-25.3125-11.625-48.5625-31.890626-63.785156-3.554687-2.671875-8.453124-2.671875-12.011718 0-20.265625 15.222656-31.886719 38.472656-31.886719 63.785156 0 4.238282.332031 8.414063.96875 12.503907-12.140625-4.949219-25.515625-6.648438-39.019531-4.730469-4.40625.628906-7.871094 4.089844-8.496094 8.496094-3.367188 23.699218 4.398438 46.984375 21.300781 63.890625.714844.714843 1.445313 1.398437 2.179688 2.078125-16.097657.507812-29.042969 13.753906-29.042969 29.976562 0 15.867188 12.390625 28.890625 28 29.925782v34.289062c-48.8125 23.6875-80 73.136719-80 127.78125 0 78.300781 63.703125 142 142.003906 142 22.691406 0 45.269532-5.484375 65.289063-15.867188 4.902343-2.542968 6.8125-8.578124 4.269531-13.480468-2.539062-4.902344-8.574219-6.8125-13.476562-4.273438-17.433594 9.039063-36.300782 13.621094-56.082032 13.621094-67.273437 0-122.003906-54.726562-122.003906-122 0-11.699219 1.683594-23.113281 4.828125-33.988281.167969-.144531.335937-.285157.492187-.445313 29.261719-29.261718 76.292969-30.1875 106.683594-2.78125v54.558594l-26.445312 43.609375c-2.863282 4.722656-1.355469 10.871094 3.367187 13.738281 1.617188.980469 3.40625 1.449219 5.171875 1.449219 3.382813 0 6.679688-1.714844 8.5625-4.816406l19.34375-31.898438 19.34375 31.898438c1.878906 3.101562 5.179688 4.816406 8.558594 4.816406 1.769531 0 3.558594-.46875 5.175781-1.449219 4.722657-2.867187 6.230469-9.015625 3.367188-13.738281l-26.445313-43.609375v-38.183594c15.796875 9.929688 33.832032 14.917969 51.875 14.917969 20.261719 0 40.519532-6.257813 57.59375-18.769531 1.652344 8.019531 2.535156 16.28125 2.535156 24.691406 0 19.785156-4.585937 38.652344-13.625 56.082031-2.542968 4.902344-.628906 10.9375 4.273438 13.480469 4.90625 2.546875 10.9375.628906 13.480469-4.273438 10.382812-20.015624 15.867187-42.59375 15.867187-65.289062 0-54.644531-31.1875-104.09375-80-127.78125zm3.152344-149.417969h.050781c.011719 14.59375-5.6875 28.484375-16.207031 39.007813-10.382812 10.378906-24.042969 16.058594-38.421875 16.195312h-.558594c0-.304687-.003906-.609375-.007812-.914062.222656-14.253906 5.886719-27.78125 16.1875-38.082032 10.507812-10.511718 24.382812-16.207031 38.957031-16.207031zm-65.152344-69.65625c11.457032 11.183594 17.894532 26.34375 17.894532 42.648438 0 16.300781-6.4375 31.464843-17.894532 42.644531-11.457031-11.179688-17.894531-26.34375-17.894531-42.644531 0-16.304688 6.4375-31.464844 17.894531-42.648438zm-65.207031 69.65625h.050781c14.574219 0 28.449219 5.699219 38.960938 16.207031 10.296875 10.300782 15.960937 23.828126 16.1875 38.082032-.003906.304687-.007813.609375-.007813.914062h-.5625c-14.375-.140625-28.039062-5.816406-38.417969-16.195312-10.523437-10.523438-16.222656-24.417969-16.210937-39.007813zm-4.796875 85.203125c0-5.515625 4.488281-10 10-10h49.144531c.253907.003906.507813.019532.761719.019532.347656 0 .695312-.015626 1.046875-.019532h18.101563c.347656.003906.695312.019532 1.046874.019532.253907 0 .503907-.015626.757813-.019532h49.144531c5.515625 0 10 4.484375 10 10s-4.484375 10-10 10h-120c-5.515625 0-10.003906-4.484375-10.003906-10zm-30.550781 122.890625c12.800781-18.632812 30.785156-33.746093 52.496093-43.0625 3.675782-1.574219 6.058594-5.1875 6.058594-9.1875v-40.640625h32v99.828125c-27.34375-17.183593-61.402344-19.496093-90.554687-6.9375zm162.429687 43.230469c-19.351562 0-37.617187-7.046875-51.875-19.921875v-116.199219h32v40.640625c0 4 2.382813 7.613281 6.054688 9.1875 30.339844 13.019531 53.410156 37.335938 65.203125 66.796875-14.1875 12.597656-32.25 19.496094-51.382813 19.496094zm0 0"/><path d="m235.34375 453.335938c-2.640625 0-5.210938 1.070312-7.070312 2.929687-1.871094 1.863281-2.929688 4.441406-2.929688 7.070313 0 2.632812 1.058594 5.210937 2.929688 7.070312 1.859374 1.859375 4.429687 2.929688 7.070312 2.929688 2.628906 0 5.199219-1.070313 7.070312-2.929688 1.859376-1.859375 2.929688-4.4375 2.929688-7.070312 0-2.628907-1.070312-5.207032-2.929688-7.070313-1.871093-1.859375-4.441406-2.929687-7.070312-2.929687zm0 0"/></svg>